<svg width="600" height="189" viewBox="0 0 600 189" fill="none" xmlns="http://www.w3.org/2000/svg">
<path fill-rule="evenodd" clip-rule="evenodd" d="M305.23 135.88C305.956 134.268 306.328 132.518 306.32 130.75L306.33 86C306.338 84.2317 305.966 82.4823 305.24 80.87C304.522 79.3004 303.503 77.887 302.24 76.71C299.563 74.2267 296.041 72.8571 292.39 72.88H267.56C265.75 72.879 263.955 73.2182 262.27 73.88C260.667 74.4928 259.192 75.3982 257.92 76.55C256.673 77.6792 255.655 79.037 254.92 80.55C254.163 82.0746 253.731 83.7397 253.65 85.44V45.6H239.82V130.75C239.807 132.519 240.179 134.269 240.91 135.88C241.628 137.45 242.647 138.863 243.91 140.04C246.568 142.508 250.063 143.876 253.69 143.87H292.38C296.031 143.893 299.553 142.523 302.23 140.04C303.493 138.863 304.512 137.45 305.23 135.88ZM292.42 130.75H253.69V86H292.42V130.75Z" fill="#231F20"/>
<rect x="314.2" y="45.6" width="13.83" height="98.28" fill="#231F20"/>
<path fill-rule="evenodd" clip-rule="evenodd" d="M336.27 107.79C335.534 109.389 335.158 111.13 335.17 112.89L335.13 130.78C335.121 132.549 335.496 134.3 336.23 135.91C336.941 137.484 337.961 138.898 339.23 140.07C340.51 141.274 342.006 142.224 343.64 142.87C345.344 143.55 347.165 143.89 349 143.87H371C376.191 143.904 380.982 141.09 383.48 136.54C384.271 135.099 384.751 133.508 384.89 131.87V143.87H398.79V86.04C398.803 84.2712 398.431 82.5209 397.7 80.91C396.981 79.3408 395.962 77.9275 394.7 76.75C392.029 74.2648 388.508 72.8946 384.86 72.92H339.49V86H384.84V99.79H349C347.165 99.7701 345.344 100.11 343.64 100.79C340.373 102.086 337.732 104.594 336.27 107.79ZM384.84 130.75H349V112.89H384.84V130.75Z" fill="#231F20"/>
<path fill-rule="evenodd" clip-rule="evenodd" d="M406.86 107.79C406.133 109.391 405.761 111.131 405.77 112.89L405.76 130.71C405.752 132.478 406.124 134.228 406.85 135.84C407.568 137.41 408.587 138.823 409.85 140C412.508 142.468 416.003 143.836 419.63 143.83H441.63C446.797 143.844 451.56 141.037 454.05 136.51C454.841 135.069 455.321 133.478 455.46 131.84V143.84H469.36V86.01C469.373 84.2412 469.001 82.4909 468.27 80.88C467.554 79.3091 466.535 77.8953 465.27 76.72C463.992 75.5193 462.499 74.5695 460.87 73.92C459.143 73.2351 457.298 72.8954 455.44 72.92H410.07V86H455.44V99.79H419.6C417.765 99.7701 415.944 100.11 414.24 100.79C410.967 102.081 408.322 104.59 406.86 107.79ZM455.44 130.75H419.6V112.89H455.44V130.75Z" fill="#231F20"/>
<path d="M524.7 130.75V114.29H491.76C489.899 114.314 488.051 113.974 486.32 113.29C484.691 112.64 483.198 111.691 481.92 110.49C480.654 109.316 479.634 107.902 478.92 106.33C478.186 104.72 477.811 102.969 477.82 101.2V86C477.811 84.2305 478.186 82.4802 478.92 80.87C479.631 79.2962 480.651 77.8815 481.92 76.71C483.198 75.5093 484.691 74.5595 486.32 73.91C488.051 73.226 489.899 72.8863 491.76 72.91H535.76V86H491.76V101.13H524.7C526.552 101.102 528.391 101.442 530.11 102.13C531.732 102.793 533.222 103.741 534.51 104.93C535.779 106.101 536.8 107.516 537.51 109.09C538.241 110.701 538.613 112.451 538.6 114.22V130.68C538.613 132.449 538.241 134.199 537.51 135.81C536.8 137.384 535.779 138.799 534.51 139.97C533.222 141.159 531.732 142.107 530.11 142.77C528.391 143.458 526.552 143.798 524.7 143.77H477.86V130.75H524.7Z" fill="#231F20"/>
<path d="M543.07 72.92H561.41V51.06H575.31V72.92H600V86H575.31V130.71H600V143.83H575.31C573.475 143.85 571.654 143.51 569.95 142.83C568.308 142.177 566.799 141.228 565.5 140.03C564.234 138.856 563.214 137.442 562.5 135.87C561.769 134.259 561.397 132.509 561.41 130.74V86H543.07V72.92Z" fill="#231F20"/>
<rect x="51.6487" y="96.2344" width="45.76" height="17.27" transform="rotate(-45 51.6487 96.2344)" fill="url(#paint0_linear)"/>
<path d="M87.63 186.05L3 101.36C-0.927464 97.4219 -0.927464 91.0482 3 87.11L37.06 53L49.27 65.21L20.27 94.21L94.78 168.73L168.3 95.21L138.15 65.1L150.36 52.89L185.58 88.11C187.471 89.9989 188.534 92.5621 188.534 95.235C188.534 97.9079 187.471 100.471 185.58 102.36L101.89 186.05C97.9484 189.979 91.5716 189.979 87.63 186.05Z" fill="#D81F27"/>
<rect x="80.5406" y="125.141" width="68.79" height="17.27" transform="rotate(-45 80.5406 125.141)" fill="url(#paint1_linear)"/>
<path d="M120.53 47.49L93.76 20.72L67.3 47.19L55.09 35L86.63 3.45C90.5716 -0.478614 96.9484 -0.478614 100.89 3.45L132.75 35.31L120.53 47.49Z" fill="#DF5326"/>
<defs>
<linearGradient id="paint0_linear" x1="17.0323" y1="95.0554" x2="22.0574" y2="130.336" gradientUnits="userSpaceOnUse">
<stop stop-color="#E88424"/>
<stop offset="1" stop-color="#D81F27"/>
</linearGradient>
<linearGradient id="paint1_linear" x1="7.73336" y1="117.67" x2="10.6048" y2="163.228" gradientUnits="userSpaceOnUse">
<stop stop-color="#E88424"/>
<stop offset="1" stop-color="#D81F27"/>
</linearGradient>
</defs>
</svg>
