<svg width="42" height="39" viewBox="0 0 42 39" fill="none" xmlns="http://www.w3.org/2000/svg">
  <path d="M19.7725 7.41516L16.0093 11.1973L17.4305 12.6256L21.1937 8.8435L19.7725 7.41516Z" fill="url(#paint0_linear)"/>
  <path d="M20.1966 21.6987L10.3441 11.7969C9.88529 11.3357 9.88529 10.592 10.3441 10.1309L14.3123 6.14287L15.7341 7.5718L12.3573 10.9623L21.0238 19.6723L29.5772 11.0792L26.0712 7.55881L27.493 6.12988L31.5903 10.2478C32.0492 10.709 32.0492 11.4559 31.5903 11.9138L21.8543 21.6987C21.3954 22.1567 20.6554 22.1567 20.1966 21.6987Z" fill="#E1261C"/>
  <path d="M25.03 8.89234L19.3726 14.5781L20.7938 16.0065L26.4512 10.3207L25.03 8.89234Z" fill="url(#paint1_linear)"/>
  <path d="M24.0226 5.49977L20.9075 2.3691L17.828 5.46404L16.4062 4.03511L20.0803 0.345867C20.5392 -0.115289 21.2791 -0.115289 21.738 0.345867L25.4444 4.07083L24.0226 5.49977Z" fill="#E9830A"/>
  <path d="M35.2075 30.1868H37.3362V27.6357H38.9489V30.1868H41.8162V31.72H38.9489V36.9356H41.8162V38.4656H38.9489C38.7296 38.4656 38.5231 38.4267 38.3264 38.3456C38.1296 38.2646 37.9555 38.1576 37.8103 38.0182C37.662 37.8821 37.5459 37.72 37.462 37.532C37.3782 37.344 37.3362 37.1463 37.3362 36.9323V31.72H35.2075V30.1868Z" fill="black"/>
  <path d="M33.0724 36.9356V35.0134H29.2472C29.0247 35.0134 28.8118 34.9745 28.6151 34.8935C28.4183 34.8124 28.2474 34.7055 28.1022 34.5661C27.9571 34.4299 27.8442 34.2679 27.7571 34.0799C27.6733 33.8951 27.6313 33.6941 27.6313 33.4802V31.7168C27.6313 31.5029 27.6733 31.3052 27.7571 31.1171C27.841 30.9291 27.9571 30.7671 28.1022 30.6309C28.2474 30.4948 28.4183 30.3846 28.6151 30.3035C28.8118 30.2225 29.0247 30.1836 29.2472 30.1836H34.3497V31.7168H29.2472V33.4802H33.0724C33.295 33.4802 33.5046 33.5191 33.6982 33.6001C33.8917 33.6812 34.0626 33.7881 34.211 33.9275C34.3593 34.0637 34.4755 34.2257 34.5593 34.4137C34.6432 34.6017 34.6851 34.7995 34.6851 35.0134V36.9356C34.6851 37.1463 34.6432 37.3473 34.5593 37.5353C34.4755 37.7201 34.3593 37.8821 34.211 38.0215C34.0626 38.1577 33.8917 38.2679 33.6982 38.3489C33.5046 38.4299 33.295 38.4688 33.0724 38.4688H27.6346V36.9356H33.0724Z" fill="black"/>
  <path d="M11.0694 34.851C11.0694 34.6371 11.1114 34.4394 11.1952 34.2546C11.2791 34.0698 11.3952 33.9078 11.5403 33.7684C11.6855 33.629 11.8564 33.5188 12.0532 33.4377C12.2499 33.3567 12.4563 33.3178 12.6756 33.3178H16.8363V31.7165H11.5694V30.1865H16.8363C17.0588 30.1865 17.2717 30.2254 17.4652 30.3065C17.662 30.3875 17.8329 30.4945 17.978 30.6338C18.1232 30.77 18.2393 30.9321 18.3232 31.1201C18.407 31.3048 18.4489 31.5058 18.4489 31.7197V38.4685H16.8363V37.0682C16.8202 37.2595 16.7653 37.441 16.6718 37.6128C16.5783 37.7846 16.4589 37.9337 16.3138 38.0601C16.1686 38.1865 16.0042 38.287 15.8171 38.3583C15.63 38.4296 15.4365 38.4685 15.2269 38.4685H12.6692C12.4499 38.4685 12.2434 38.4296 12.0467 38.3486C11.85 38.2676 11.679 38.1606 11.5339 38.0212C11.3887 37.8851 11.2759 37.723 11.1888 37.535C11.1049 37.347 11.063 37.1492 11.063 36.9353V34.851H11.0694ZM12.6756 36.9353H16.8363V34.851H12.6756V36.9353Z" fill="black"/>
  <path d="M19.2649 34.851C19.2649 34.6371 19.3069 34.4394 19.3907 34.2546C19.4746 34.0698 19.5907 33.9078 19.7358 33.7684C19.881 33.629 20.0519 33.5188 20.2487 33.4377C20.4454 33.3567 20.6518 33.3178 20.8711 33.3178H25.0318V31.7165H19.7649V30.1865H25.0318C25.2543 30.1865 25.464 30.2254 25.6607 30.3065C25.8575 30.3875 26.0284 30.4945 26.1736 30.6338C26.3187 30.77 26.4348 30.9321 26.5187 31.1201C26.6025 31.3048 26.6445 31.5058 26.6445 31.7197V38.4685H25.0318V37.0682C25.0157 37.2595 24.9608 37.441 24.8673 37.6128C24.7738 37.7846 24.6544 37.9337 24.5093 38.0601C24.3642 38.1865 24.1997 38.287 24.0126 38.3583C23.8255 38.4296 23.632 38.4685 23.4224 38.4685H20.8679C20.6486 38.4685 20.4422 38.4296 20.2454 38.3486C20.0487 38.2676 19.8778 38.1606 19.7326 38.0212C19.5875 37.8851 19.4746 37.723 19.3875 37.535C19.3036 37.347 19.2617 37.1492 19.2617 36.9353V34.851H19.2649ZM20.8711 36.9353H25.0318V34.851H20.8711V36.9353Z" fill="black"/>
  <path d="M10.2371 27H8.63086V38.4684H10.2371V27Z" fill="black"/>
  <path d="M7.71817 36.9352C7.71817 37.1459 7.67624 37.3468 7.59239 37.5348C7.50853 37.7229 7.39242 37.8849 7.24728 38.0211C7.10214 38.1605 6.9312 38.2674 6.73445 38.3485C6.53771 38.4295 6.32806 38.4684 6.10229 38.4684H1.60621C1.38689 38.4684 1.18047 38.4295 0.983721 38.3485C0.786977 38.2674 0.616034 38.1605 0.470895 38.0211C0.325756 37.8849 0.21287 37.7229 0.125787 37.5348C0.0419289 37.3468 0 37.1491 0 36.9352V27H1.60621V31.6515C1.61588 31.4506 1.66749 31.2593 1.75457 31.081C1.84165 30.9028 1.95777 30.7472 2.10291 30.6143C2.24804 30.4814 2.41576 30.3776 2.60928 30.3031C2.79957 30.2285 3.00599 30.1896 3.22209 30.1896H6.10552C6.32806 30.1896 6.54093 30.2285 6.73768 30.3096C6.93442 30.3906 7.10536 30.4976 7.2505 30.637C7.39564 30.7731 7.50853 30.9352 7.59561 31.1232C7.67947 31.3079 7.7214 31.5089 7.7214 31.7229V36.9352H7.71817ZM1.60621 36.9352H6.10229V31.7196H1.60621V36.9352Z" fill="black"/>
  <defs>
    <linearGradient id="paint0_linear" x1="17.4423" y1="12.5971" x2="19.8116" y2="7.48944" gradientUnits="userSpaceOnUse">
      <stop stop-color="#E9830A"/>
      <stop offset="1" stop-color="#E1261C"/>
    </linearGradient>
    <linearGradient id="paint1_linear" x1="20.5756" y1="16.1387" x2="24.915" y2="9.07329" gradientUnits="userSpaceOnUse">
      <stop stop-color="#E9830A"/>
      <stop offset="1" stop-color="#E1261C"/>
    </linearGradient>
  </defs>
</svg>
