<svg width="18" height="22" viewBox="0 0 17 17" fill="none" xmlns="http://www.w3.org/2000/svg">
  <path fill-rule="evenodd" clip-rule="evenodd"
        d="M11.3748 4.55082C11.3747 2.96401 10.0866 1.67619 8.50132 1.67619C6.91324 1.67619 5.62788 2.96082 5.62788 4.55082L5.62788 7.42186C5.62788 7.8186 5.9495 8.14022 6.34624 8.14022C6.74298 8.14022 7.0646 7.8186 7.0646 7.42186L7.0646 4.55082C7.0646 3.75448 7.70654 3.11291 8.50131 3.11291C9.29324 3.11291 9.93803 3.75756 9.93803 4.55082L9.93803 7.42186C9.93803 7.8186 10.2597 8.14022 10.6564 8.14022C11.0531 8.14022 11.3748 7.8186 11.3747 7.42186L11.3748 4.55082ZM9.21967 10.2953V6.70351C9.21967 6.30677 8.89805 5.98515 8.50132 5.98515C8.10458 5.98515 7.78296 6.30677 7.78296 6.70351V10.2953C7.78296 10.692 8.10458 11.0137 8.50132 11.0137C8.89805 11.0137 9.21967 10.692 9.21967 10.2953ZM8.50131 13.8871C9.29324 13.8871 9.93803 13.2424 9.93803 12.4492L9.93803 9.57814C9.93803 9.1814 10.2597 8.85978 10.6564 8.85978C11.0531 8.85978 11.3748 9.1814 11.3747 9.57814L11.3748 12.4492C11.3747 14.036 10.0866 15.3238 8.50132 15.3238C6.91324 15.3238 5.62788 14.0392 5.62788 12.4492L5.62788 9.57814C5.62788 9.1814 5.9495 8.85978 6.34624 8.85978C6.74298 8.85978 7.0646 9.1814 7.0646 9.57814L7.0646 12.4492C7.0646 13.2455 7.70654 13.8871 8.50131 13.8871Z"
        fill="#37474F"/>
</svg>
