<?xml version="1.0" encoding="UTF-8" standalone="no"?>
<!DOCTYPE svg PUBLIC "-//W3C//DTD SVG 1.1//EN" "http://www.w3.org/Graphics/SVG/1.1/DTD/svg11.dtd">
<svg version="1.1" xmlns="http://www.w3.org/2000/svg" xmlns:xlink="http://www.w3.org/1999/xlink" preserveAspectRatio="xMidYMid meet" viewBox="0 0 640 640" width="640" height="640"><defs><path d="M275.6 345.96C283.12 356.01 292.71 364.33 303.72 370.34C314.73 376.36 326.91 379.94 339.42 380.84C351.94 381.73 364.5 379.93 376.25 375.54C388.01 371.15 398.68 364.29 407.55 355.42C412.8 350.16 454.8 308.16 460.05 302.91C475.99 286.4 484.81 264.29 484.61 241.35C484.41 218.4 475.21 196.45 458.99 180.22C442.76 164 420.82 154.79 397.88 154.6C374.93 154.4 352.83 163.22 336.33 179.16C334.32 181.15 324.29 191.13 306.23 209.09" id="c1UpqRwtJT"></path><path d="M345.6 311.53C338.09 301.48 328.5 293.17 317.49 287.15C306.48 281.13 294.3 277.56 281.79 276.66C269.27 275.76 256.71 277.57 244.96 281.96C233.2 286.34 222.53 293.21 213.66 302.08C208.41 307.33 166.41 349.34 161.16 354.59C145.22 371.1 136.4 393.2 136.6 416.15C136.8 439.09 146 461.05 162.22 477.27C178.44 493.5 200.39 502.7 223.33 502.9C246.27 503.1 268.38 494.28 284.88 478.34C286.87 476.34 296.85 466.36 314.8 448.41" id="b8npHfelg"></path></defs><g><g><g><use xlink:href="#c1UpqRwtJT" opacity="1" fill="#000000" fill-opacity="0"></use><g><use xlink:href="#c1UpqRwtJT" opacity="1" fill-opacity="0" stroke="#40465e" stroke-width="44" stroke-opacity="1"></use></g></g><g><use xlink:href="#b8npHfelg" opacity="1" fill="#000000" fill-opacity="0"></use><g><use xlink:href="#b8npHfelg" opacity="1" fill-opacity="0" stroke="#40465e" stroke-width="44" stroke-opacity="1"></use></g></g></g></g></svg>